<?xml version="1.0" encoding="utf-8"?>
<!-- Generator: Adobe Illustrator 23.0.2, SVG Export Plug-In . SVG Version: 6.00 Build 0)  -->
<svg version="1.1" id="Layer_1" xmlns="http://www.w3.org/2000/svg" xmlns:xlink="http://www.w3.org/1999/xlink" x="0px" y="0px"
	 viewBox="0 0 560 601.1" style="enable-background:new 0 0 560 601.1;" xml:space="preserve">
<style type="text/css">
	.st0{fill:#20B678;}
</style>
<title>21-service</title>
<g>
	<path class="st0" d="M552.5,158c-0.7,0.1-1.4,0.1-2.1,0.1l-72.9-6.3l-63.2-5.5c-4.9-0.4-8.5-4.7-8.1-9.6c0.2-2,1-3.8,2.3-5.3
		l21.2-22.7l26.3-28.2c-4.1-2.9-8.3-5.7-12.7-8.4c-52-32.6-116-47.9-183.8-37.9C145.4,51.2,54.5,139.8,35.2,253.5
		C6.5,423,136.4,569.9,300.5,569.9c68.2,0.1,134-25.8,183.8-72.5c5-4.7,12.8-4.6,17.7,0.2l1.2,1.2c0.2,0.2,0.5,0.5,0.7,0.7
		c6.2,6.8,5.6,17.3-1.2,23.5c-55.3,50.4-127.4,78.3-202.2,78.2C138.1,601.1,5.7,472.2,0.2,311C-5.8,135,135.5-6.1,311.5,0.2
		c55.3,2,108.2,19.2,153.4,48.7c4.2,2.8,8.4,5.6,12.5,8.6l46-49.3c3.4-3.6,9-3.8,12.6-0.4c1.5,1.3,2.4,3.1,2.7,5.1l21.2,135
		C560.7,152.7,557.4,157.3,552.5,158z"/>
</g>
<path class="st0" d="M342.2,341.4h71.4V230.1L342.2,341.4z M342.2,341.4h71.4V230.1L342.2,341.4z M342.2,341.4h71.4V230.1
	L342.2,341.4z M342.2,341.4h71.4V230.1L342.2,341.4z M489.8,167.9l-76.9-6.6c-13.1-1.1-22.9-12.8-21.8-25.9
	c0.5-5.3,2.7-10.3,6.3-14.2l19.2-20.6c-34.4-20.2-74.5-31.7-117.3-31.7C170.9,68.9,66.8,173,66.8,301.5s104.1,232.6,232.6,232.6
	S532,430,532,301.5C532,251.8,516.4,205.7,489.8,167.9z M272.3,409.8H141c-0.4,0-0.8,0-1.2-0.1c-1.2-0.1-2.3-0.5-3.3-1
	c-0.1,0-0.1-0.1-0.2-0.1c-0.6-0.3-1.1-0.7-1.6-1.1c-0.1,0-0.1-0.1-0.1-0.1c-1.1-0.9-2-2-2.6-3.2c-0.7-1.4-1.1-2.9-1.1-4.5
	c0-0.4,0-0.8,0.1-1.2c0.2-2,1.1-3.9,2.3-5.3l101.4-123.6c14.7-23.4,7.8-54.3-15.5-69.3c-23.4-15-54.7-8.3-69.8,15.2
	c-3,4.7-9.2,6-13.9,3s-6-9.2-3-13.9c21.1-32.7,64.8-42.3,97.6-21.2s42.3,64.8,21.2,97.6l-0.7,0.9l-88.4,107.8h110.1
	c5.6,0,10.1,4.5,10.1,10.1S277.9,409.8,272.3,409.8z M433.8,399.8c0,5.6-4.5,10.1-10.1,10.1s-10.1-4.5-10.1-10.1v-38.3h-89.9
	c-0.5,0-0.9,0-1.4-0.1c-2-0.3-3.8-1.1-5.2-2.4c-0.8-0.7-1.5-1.5-2-2.3c-0.8-1.4-1.4-2.9-1.5-4.6c-0.1-1,0-2.1,0.3-3.1
	c0.3-1.1,0.8-2.2,1.4-3.1l99.7-155.2c0.3-0.4,0.5-0.8,0.8-1.2c0.9-1.1,2.1-2,3.3-2.6c1-0.5,2-0.8,3.1-0.9c1.4-0.2,2.8-0.1,4.1,0.3
	c1.4,0.4,2.8,1.1,3.8,2.1c0.8,0.7,1.4,1.5,2,2.3c0.8,1.4,1.3,2.9,1.5,4.6c0,0.3,0,0.5,0,0.8V399.8z M413.6,341.4V230.1l-71.4,111.2
	H413.6z M342.2,341.4h71.4V230.1L342.2,341.4z M342.2,341.4h71.4V230.1L342.2,341.4z"/>
</svg>
