<svg xmlns="http://www.w3.org/2000/svg" viewBox="0 0 200 200"><defs><style>.cls-1{fill:#20b678;}.cls-2{fill:none;}</style></defs><g id="Layer_4" data-name="Layer 4"><path class="cls-1" d="M87.48,10.11A92.14,92.14,0,0,1,156.16,22a93,93,0,0,1,43.68,77v3.09A93.19,93.19,0,0,1,134.2,189.2a100.31,100.31,0,0,1-11.61,2.85q0-10.94,0-21.86a72.39,72.39,0,0,0,30.17-15.09,71.65,71.65,0,0,0,20.51-28.25,70.64,70.64,0,0,0,.2-52,71.28,71.28,0,0,0-136,10.43H52.86q-13.19,22.13-26.41,44.24Q13.6,107.37.76,85.24H15.65c.82-3.48,1.35-7,2.49-10.45A93.19,93.19,0,0,1,87.48,10.11Z"/><path class="cls-1" d="M95.1,51.71h10.72q0,25.15,0,50.3H134c0,3.57,0,7.15,0,10.72H95.1Z"/><path class="cls-1" d="M5.52,144.73A17,17,0,0,1,17,140.58c4.53-.07,9.35.82,12.94,3.78a13.63,13.63,0,0,1,4.92,9.82,14.86,14.86,0,0,1-2.57,10.3c-4.72,6.44-10.38,12.11-15.79,18,6.55,0,13.09,0,19.63,0,0,3.13,0,6.26,0,9.39q-17.41,0-34.85,0c0-2.58,0-5.16,0-7.74,4.5-4.85,9.08-9.63,13.61-14.45a36.34,36.34,0,0,0,7.31-9.85,8.55,8.55,0,0,0,.36-7.29c-1.46-3.41-6.88-4-9-1a10,10,0,0,0-1.8,6.14c-3.83,0-7.66,0-11.49,0v-.8A16.29,16.29,0,0,1,5.52,144.73Z"/><path class="cls-1" d="M78.33,140.89c4,0,8,0,12.08,0,0,6,0,12,0,17.92A10.93,10.93,0,0,1,96.62,154a11.69,11.69,0,0,1,11.52,3c2.76,2.87,3.55,7,3.71,10.89,0,8,0,16,0,24-3.8,0-7.6,0-11.39,0q0-8.1,0-16.21a58.05,58.05,0,0,0-.39-9.42,4.28,4.28,0,0,0-2.83-3.39,7.86,7.86,0,0,0-6.37,1c-.51.26-.45.85-.47,1.33q0,13.37,0,26.73c-4,0-8,0-12.08,0Z"/><path class="cls-1" d="M37.16,172.9Q47,157.24,56.77,141.53c3.83,0,7.67,0,11.5,0,0,10.28,0,20.56,0,30.84,1.78,0,3.57,0,5.36,0v8.71H68.28c0,3.57,0,7.15,0,10.73H56.88c0-3.58,0-7.16,0-10.74H37.09c-.17-2.22-.36-4.43-.52-6.65C36.45,173.86,36.9,173.39,37.16,172.9Zm18.19-14.64c-2.82,4.71-5.66,9.42-8.48,14.14,3.34,0,6.67,0,10,0,0-5.37.09-10.74-.07-16.11A12.33,12.33,0,0,0,55.35,158.26Z"/></g><g id="Layer_5" data-name="Layer 5"><rect class="cls-2" width="200" height="200"/></g></svg>