<svg xmlns="http://www.w3.org/2000/svg" viewBox="0 0 200 200"><defs><style>.cls-1,.cls-4{fill:none;}.cls-1,.cls-2{stroke:#20b678;stroke-miterlimit:10;}.cls-2,.cls-3{fill:#20b678;}</style></defs><g id="Layer_2" data-name="Layer 2"><path class="cls-1" d="M32.85,181.77a5,5,0,0,1-.45,2.09H23a5.14,5.14,0,0,1,3.06-6.95,5,5,0,0,1,1.64-.27,5,5,0,0,1,1.65.27A5.15,5.15,0,0,1,32.85,181.77Z"/><path class="cls-2" d="M156.54,181.77a5.14,5.14,0,0,1-9.91,1.93,5,5,0,0,1-.38-1.93,5.15,5.15,0,0,1,10.29,0Z"/><path class="cls-3" d="M198.56,170.72l-5.74-7.35H59.69V120.71a4,4,0,0,0-4-4H19.57a4,4,0,0,0-3.41,1.91L1.62,142.44a10.14,10.14,0,0,0-1.48,5.28v32.42a3.67,3.67,0,0,0,3.67,3.68H16a11.72,11.72,0,0,1-.18-2.07A11.91,11.91,0,0,1,25.62,170h4.17a11.91,11.91,0,0,1,9.82,11.73,12.06,12.06,0,0,1-.18,2.1H53v3a3.64,3.64,0,0,0,3.64,3.64H92.94a3.64,3.64,0,0,0,3.64-3.64V183.7h43.06a12.26,12.26,0,0,1-.16-1.93,11.78,11.78,0,0,1,1-4.75,11.94,11.94,0,0,1,9.73-7.1h2.39a11.88,11.88,0,0,1,10.71,11.85,12.26,12.26,0,0,1-.15,1.93H196a3.9,3.9,0,0,0,3.89-3.9v-5.3A6.1,6.1,0,0,0,198.56,170.72ZM21.69,123.42h9.44l-4.39,20.22s-18.23-.18-18.41,0ZM6.17,150.13h23a4.11,4.11,0,0,0,4-3.36l4.43-23.71h15.4v40.43H6.17Zm4,26.77H5.93V170h7.82A18.17,18.17,0,0,0,10.14,176.9Zm43.07,0H45.27A18.19,18.19,0,0,0,41.65,170H53.21Zm36.57,6.86H59.55v-14H89.78Zm44-6.74H110.05v-7.1h27.5A18.28,18.28,0,0,0,133.79,177Zm35.2,0a18.13,18.13,0,0,0-3.75-7.1h17.12L186,177Z"/><path class="cls-1" d="M25.62,170a12,12,0,0,0-8.79,6.86H10.14A18.17,18.17,0,0,1,13.75,170Z"/><path class="cls-1" d="M29.35,176.9H26.06a5,5,0,0,1,1.64-.27A5,5,0,0,1,29.35,176.9Z"/><path class="cls-3" d="M169,177a18.24,18.24,0,0,0-35.2,0,18.63,18.63,0,0,0-.62,4.75,17.69,17.69,0,0,0,.1,1.93,18.23,18.23,0,0,0,36.25,0,17.69,17.69,0,0,0,.1-1.93A18.2,18.2,0,0,0,169,177Zm-17.6,16.66a11.91,11.91,0,0,1-11.75-10,12.26,12.26,0,0,1-.16-1.93,11.78,11.78,0,0,1,1-4.75,11.94,11.94,0,0,1,9.73-7.1,11.93,11.93,0,0,1,2.39,0,11.88,11.88,0,0,1,10.71,11.85,12.26,12.26,0,0,1-.15,1.93A11.91,11.91,0,0,1,151.39,193.68Z"/><path class="cls-1" d="M45.27,176.9h-6.7A11.92,11.92,0,0,0,29.79,170H41.65A18.19,18.19,0,0,1,45.27,176.9Z"/><path class="cls-3" d="M45.27,176.9a18.23,18.23,0,0,0-35.79,4.87,19.85,19.85,0,0,0,.11,2.06,18.23,18.23,0,1,0,35.68-6.93ZM27.7,193.68A11.92,11.92,0,0,1,16,183.84a11.72,11.72,0,0,1-.18-2.07,11.91,11.91,0,1,1,23.82,0,12.06,12.06,0,0,1-.18,2.1A11.91,11.91,0,0,1,27.7,193.68Z"/><path class="cls-3" d="M32.85,181.77a5,5,0,0,1-.45,2.09,5.14,5.14,0,1,1-6.34-7,5,5,0,0,1,1.64-.27,5,5,0,0,1,1.65.27A5.15,5.15,0,0,1,32.85,181.77Z"/><path class="cls-1" d="M150.2,169.92a11.94,11.94,0,0,0-9.73,7.1h-6.68a18.28,18.28,0,0,1,3.76-7.1Z"/><path class="cls-1" d="M169,177h-6.67a12,12,0,0,0-9.73-7.1h12.65A18.13,18.13,0,0,1,169,177Z"/><path class="cls-3" d="M166,130.41h-5.95l-9.5-10.59a13.23,13.23,0,0,0-9.86-4.4H122.16a13.22,13.22,0,0,0-8.45,3l-14.9,12.35L80,134.09a6.45,6.45,0,0,0-5.34,6.35v8.15A6.45,6.45,0,0,0,81.15,155h.68a12.73,12.73,0,1,1,24.93,0h31.82a12.73,12.73,0,1,1,25.19-2.57,12.58,12.58,0,0,1-.3,2.77h2a8.16,8.16,0,0,0,8.16-8.16V138A7.6,7.6,0,0,0,166,130.41Zm-33.63,6h-6.57a.9.9,0,0,1-.63-.26.93.93,0,0,1-.26-.64.89.89,0,0,1,.89-.88h6.57a.89.89,0,0,1,.89.88A.89.89,0,0,1,132.4,136.41Zm1.39-8.15a2.48,2.48,0,0,1-2.48,2.49H108.58A1,1,0,0,1,108,129l10.37-8.31a2.45,2.45,0,0,1,1.56-.55h11.42a2.49,2.49,0,0,1,2.48,2.49Zm18.06,2.67H141.66a2.48,2.48,0,0,1-2.48-2.48v-6.3a2.48,2.48,0,0,1,2.48-2.48h2.92a2.49,2.49,0,0,1,1.91.88l6.55,7.82A1.55,1.55,0,0,1,151.85,130.93Z"/><path class="cls-2" d="M150.87,142.72a10.13,10.13,0,1,0,9.85,12.5,10.25,10.25,0,0,0,.28-2.37A10.13,10.13,0,0,0,150.87,142.72Zm4.73,12.46a5.28,5.28,0,1,1,.54-2.33A5.19,5.19,0,0,1,155.6,155.18Z"/><path class="cls-1" d="M145.61,152.85a5.27,5.27,0,0,0,10,2.33,5.19,5.19,0,0,0,.54-2.33,5.27,5.27,0,1,0-10.53,0Z"/><path class="cls-1" d="M81.82,155a13.57,13.57,0,0,1-.25-2.57A12.73,12.73,0,1,1,106.76,155"/><path class="cls-3" d="M94.53,142.72a10.13,10.13,0,0,0-10.12,10.13,10.57,10.57,0,0,0,.23,2.19,10.13,10.13,0,0,0,19.78,0,9.93,9.93,0,0,0,.24-2.19A10.14,10.14,0,0,0,94.53,142.72ZM99.32,155a5.26,5.26,0,0,1-9.58,0,5.19,5.19,0,0,1-.48-2.19,5.27,5.27,0,0,1,10.54,0A5.19,5.19,0,0,1,99.32,155Z"/></g><g id="Layer_5" data-name="Layer 5"><rect class="cls-4" width="200" height="200"/></g></svg>