<svg id="Layer_1" data-name="Layer 1" xmlns="http://www.w3.org/2000/svg" xmlns:xlink="http://www.w3.org/1999/xlink" viewBox="0 0 682.67 360.48"><defs><style>.cls-1{fill:none;}.cls-2{clip-path:url(#clip-path);}.cls-3{fill:#20b678;}</style><clipPath id="clip-path" transform="translate(0 -160.62)"><rect class="cls-1" width="682.67" height="682.67"/></clipPath></defs><title>collection-delivery</title><g class="cls-2"><path class="cls-3" d="M208,161.47c-31.07,2.8-46.13,7.2-82,24.13-13.87,6.67-28.67,13.6-32.67,15.47-5.73,2.66-10.26,3.6-20.66,4.26-22.14,1.34-28.4,6.27-32.8,26.27C38,239.73,36.27,244,34.13,246c-6.4,6-8.13,11.07-7.86,23.73.4,14.8,2,20.4,7.06,26,5.34,5.6,7.87,6.8,32,15.74,21.74,8,24.8,8.26,29.74,2.66l2.8-3.2,2.93,6.54c4.27,9.06,12.8,17.86,21.73,22.13,6.54,3.2,9.07,3.6,20.14,3.73s13.73-.53,20-3.46a49.82,49.82,0,0,0,22.53-22.54c2.93-6.26,3.47-9.06,3.47-20s-.4-13.6-3.74-20.13c-4.53-9.33-13.33-17.6-23.33-22.27-10.27-4.66-25.33-4.8-36.67-.4-15.46,6.14-26.26,21.07-28.4,39.47-.8,6.8-1.06,7.2-3.2,5.33C92.13,298.27,82.27,294,71.2,290s-20.67-8.53-21.47-9.73S48,275.2,48,271.47c0-5.74.67-7.34,4.4-11.07,3.33-3.6,4.93-7.07,7.6-17.47L63.33,230,76,229.2c14.8-.8,18.67-2.27,59.33-21.6,36.8-17.33,45.34-20,72.4-22.27,33.74-2.93,45.2,1.34,79.87,29.2,11.87,9.47,23.07,17.74,24.67,18.27s16.53,1.07,33.06,1.2c24.4.27,32.94.8,45.87,3.2,25.87,4.67,57.47,16.4,60.8,22.67,1.73,3.33,1.73,26.8,0,31.33-1.07,3.07-2,3.47-7.07,3.47-8.66,0-12.93,3.73-12.93,11.33,0,8.67,3.47,11.33,14.27,11.33,13.33,0,22-4.66,27.2-14.93,2.13-4.27,2.53-8,2.53-27.07,0-24.66-1.07-28.8-9.6-36-9.2-7.86-38.13-18.66-61.73-23.33-19.07-3.6-47.87-5.73-66.4-4.93l-15.87.66-8.13-6.93C267.33,165.33,248.8,157.73,208,161.47ZM154,276.8c10.13,4.8,15.6,20.27,10.67,30-3.2,6.27-5.87,9.07-11.6,12-17.34,8.8-38.14-7.87-33.07-26.67,2.93-10.8,14.8-19.6,24.93-18.26A37.84,37.84,0,0,1,154,276.8Z" transform="translate(0 -160.62)"/><path class="cls-3" d="M527.07,167.47c-7.6,2.8-18.4,12.66-22.8,21.06l-3.6,6.8-.4,75.6-.4,75.74-234.94.26L30,347.33l-6.67,3.34c-9.06,4.4-17.2,13.2-20.53,22.13C.27,379.2,0,383.07,0,406.4c0,25.33.13,26.53,3.47,33.6C8,449.73,13.6,455.47,23.33,460.13c8,3.87,8.14,3.87,34.14,3.87,24.13,0,26.26-.27,28.4-2.53,3.86-4.27,4.26-12.14.8-16.54l-2.8-3.6h-22c-24.67,0-28.14-.8-34.8-8.4-5.2-5.86-6.27-13.33-5.47-34.8.67-16.4,2.4-21.33,9.47-26.66l3.73-2.8L276,368c233.2-.67,241.2-.8,243.87-3.2s2.66-3.47,3.06-82.67c.4-78.13.54-80.26,3.2-84.8a26.19,26.19,0,0,1,7.2-7.6c4.27-2.93,5.47-3.06,35.6-3.06,34.4,0,37.34.53,45.47,8.4,6,5.73,6.4,6.66,28.4,60.26L662,302l.4,21.6.53,21.73H646.67c-13.34,0-16.94.4-21.2,2.54A28.53,28.53,0,0,0,612,385.07c5.73,12.66,21.47,21.73,39.6,22.66l11.07.67v8.27c0,6.4-.67,9.33-2.94,12.66-5.06,7.34-9.33,9.6-19.86,10.54-11.74,1.2-15.2,4.26-14.14,12.66S629.07,462,642.4,462c13.6,0,21.73-3.07,30-11.07,10.8-10.4,10.27-6.13,10.27-84.93V295.73L663.2,248.27c-10.8-26.27-21.33-51.07-23.6-55.2-4.93-9.6-14.67-18.8-24.67-23.47l-7.6-3.6L570,165.73C539.47,165.47,531.6,165.87,527.07,167.47Zm132.4,203.86c2.26,3.47,1.73,8.94-1.07,12.27-4.4,5.33-26.4-3.07-26.4-10.13,0-4.4,2.93-5.47,14.27-5.47C656.53,368,657.47,368.27,659.47,371.33Z" transform="translate(0 -160.62)"/><path class="cls-3" d="M561.73,208.67a29.87,29.87,0,0,0-15.86,19.06c-2.54,8.4-2.54,58.8,0,67.2A29.86,29.86,0,0,0,561.73,314l6.8,3.33H606c41.2,0,42.27-.13,44-8.13,1.2-5.2-1.33-11.07-5.47-13.07-2.26-.93-14.93-1.46-37.33-1.46h-34l-3.2-3.34c-3.33-3.2-3.33-3.33-3.33-29.73,0-35.07-1.07-33.6,22.53-33.6,15.33,0,17.47-.27,20.67-2.8,4.66-3.6,4.93-13.07.53-17.2-2.67-2.4-4.67-2.67-22.4-2.67C569.73,205.33,568.13,205.6,561.73,208.67Z" transform="translate(0 -160.62)"/><path class="cls-3" d="M372.53,252.53c-19.73,4.8-33.06,20.94-34.8,42-.8,9.2-.8,9.34-3.6,7.47-2.26-1.73-13.33-2-70.53-2H195.87l-3.2,3.33a11.25,11.25,0,0,0,0,16l3.2,3.34H332.13l3.2-3.34a11.42,11.42,0,0,0,3.47-6.26c0-2.14.67-1.47,2.13,2.66,2.8,8,13.74,19.34,22.8,23.87,6.67,3.33,9.07,3.73,20.27,3.73s13.6-.4,20.27-3.73c39.06-19.2,32.8-77.2-9.47-87.07C385.87,250.4,381.47,250.4,372.53,252.53ZM390,274.8c10.13,2.53,18,12.93,18,23.87,0,5.33-5.6,15.06-10.53,18.26-12.27,8.14-27.87,4.14-34.4-8.93-1.74-3.2-3.07-7.47-3.07-9.33,0-10.4,7.33-20.54,16.93-23.6C383.47,273.07,383.2,273.07,390,274.8Z" transform="translate(0 -160.62)"/><path class="cls-3" d="M551.07,332c-6,2.53-7.34,6.8-6.8,21.2.4,11.73.8,13.73,3.46,16.4,4.14,4.27,12.94,4.13,16.4-.13s3.74-30.4.27-34.67C561.6,331.6,555.33,330.13,551.07,332Z" transform="translate(0 -160.62)"/><path class="cls-3" d="M150.4,387.47a67.72,67.72,0,1,0,81.07,85.2c3.06-10.54,3.06-28.14,0-38.67C221.33,399.47,185.47,378.93,150.4,387.47Zm34,24.93a45.14,45.14,0,0,1,26.4,34.13c3.33,18.67-7.73,38.54-26.8,47.87-5.87,2.8-9.2,3.6-17.33,3.6-17.2,0-31.34-8.8-40.14-24.93-4.13-7.74-4.53-9.34-4.53-19.74,0-9.73.53-12.26,3.73-18.26C137.87,411.73,162.4,402.27,184.4,412.4Z" transform="translate(0 -160.62)"/><path class="cls-3" d="M530.27,387.33c-13.2,3.34-22.4,8.54-31.6,17.87-14,14.27-20,28.53-20,48.13,0,25.47,13.06,47.87,34.4,59.2,28.8,15.07,60.8,10,82.66-13.06,12-12.67,17.6-27.2,17.6-46.14,0-6.26-.8-14.4-1.86-18-5.6-21.06-22.14-38.8-42.94-46.13C558.13,385.6,540.53,384.8,530.27,387.33Zm35.46,25.07c8.27,3.87,17.07,12.4,21.2,20.8,2.54,5.2,3.07,8.27,3.07,19.47,0,12.26-.27,13.86-4,20.4-6.13,11.06-16.4,19.73-27.6,23.06-11.6,3.6-19.87,2.8-31.33-2.8-26.8-13.2-34.14-46.8-14.94-68.53C526,409.07,547.6,404,565.73,412.4Z" transform="translate(0 -160.62)"/><path class="cls-3" d="M247.6,445.07c-1.47,1.6-2.27,4.8-2.27,8.53,0,11.2-8.93,10.4,111.6,10.4,106.27,0,106.67,0,109.2-2.8,3.34-3.6,3.34-12.13,0-15.73-2.53-2.8-2.93-2.8-109.46-2.8C254.8,442.67,249.6,442.8,247.6,445.07Z" transform="translate(0 -160.62)"/></g><path class="cls-3" d="M106,303H72L34,285l6-34,20-29,33-14,61-20,38-16h56l48,33,35,17h51l45,15.5L459,252v51l-15,7-30-6-1-22-12-16-36-3-16,16-2,22-37,9-117.33,9.33L179,305l-3-23-14-15-26-2-22,11Z" transform="translate(0 -160.62)"/><path class="cls-3" d="M14,398H470.18a43.19,43.19,0,0,0,31.64-13.79l18.05-19.41L34,356Z" transform="translate(0 -160.62)"/></svg>