<svg id="Layer_1" data-name="Layer 1" xmlns="http://www.w3.org/2000/svg" viewBox="0 0 648 521.63"><defs><style>.cls-1{fill:#20b678;}</style></defs><title>jump-start</title><path class="cls-1" d="M659.07,150.53c-6.14-7.2-9.34-7.86-41.07-7.86H589.33v-22.4c0-25.2-1.46-30.67-9.46-36.4l-4.54-3.2H467.07l-4.94,3.86c-7.86,6-8.8,9.6-8.8,35.47v22.67H229.47l-.4-24.54c-.4-26.93-.8-28.13-9.6-34.66-3.6-2.67-5.47-2.8-56.54-3.07-29.06-.13-53.86.13-54.93.53a23.9,23.9,0,0,0-12.13,11.6c-2.14,4.67-2.54,8.94-2.54,27.74v22.4H64.67c-31.74,0-34.94.66-41.07,7.86-5.6,6.67-6.27,11.87-6.27,46.8.14,34,.8,39.6,6.27,45.6,3.87,4.4,12.4,7.74,20,7.74h7.07l.26,164.26.4,164.4,2.94,5.34a35.9,35.9,0,0,0,15.06,14.8c4.54,2.4,13.74,2.53,272,2.53H608.67l5.33-2.93A35.92,35.92,0,0,0,628.8,584c2.4-4.53,2.53-11.6,2.93-169.07L632,250.67h7.07c7.6,0,16.13-3.34,20-7.74,5.46-6,6.13-11.6,6.26-45.6C665.33,162.4,664.67,157.2,659.07,150.53ZM473.33,100h96v42.67h-96Zm-360,0h96v42.67h-96ZM604.67,581.07c-5.07,2.26-521.6,2.26-526.67,0-7.73-3.47-7.33,5.06-7.33-169.74V250.67H612V411.33C612,586.13,612.4,577.6,604.67,581.07Zm40-353.47-.67,3.07H341.47c-274.67,0-302.54-.14-303.34-2.14-1.06-2.8-1.06-63.86.14-64.93.4-.53,137.06-.8,303.6-.67l302.8.4.4,30.67C645.2,210.8,645.07,226,644.67,227.6Z" transform="translate(-17.33 -80.37)"/><path class="cls-1" d="M417.2,382.67c-11.87-22.94-32.4-38.67-58.13-44.54-28.4-6.4-56.54,2.14-78.4,23.87a81.79,81.79,0,0,0-24.8,60.13c0,23.6,8.4,43.6,25.46,60.54,33.47,33.6,86.54,33.6,120,0,17.07-16.94,25.47-36.94,25.47-60.54C426.93,407.07,424.13,396,417.2,382.67ZM349.07,426.8c12.53,3.47,17.6,7.07,17.6,12.4,0,2-4.94,9.87-13.34,21.33-10.53,14-14.26,18.14-17.33,18.8-6.53,1.47-12-3.2-12-10.13,0-1.6,3.33-7.33,7.33-12.67s7.34-10.26,7.34-10.93-5.34-2.67-11.87-4.67c-12.67-3.86-16.13-6.53-16.13-12.93,0-3.73,42.13-59.47,47.06-62.27,3.74-2.13,8.94-1.06,12,2.54,4.54,5.46,3.07,8.93-12.53,29.2-8.13,10.53-15.87,20.8-17.33,22.66l-2.4,3.47Z" transform="translate(-17.33 -80.37)"/><path class="cls-1" d="M59,245V577l18,19H609l12-21V245Zm77,55.93,2.8-3.6h45.07l2.66,3.47c3.47,4.4,3.6,8.67.27,12.67-2.53,3.2-3.07,3.2-25.33,3.2-24.94,0-26-.27-27.6-8C133.33,305.73,133.87,303.6,136,300.93ZM306.13,521.6c-16.53-5.73-25.2-11.33-39.46-25.6-14-14-21.07-25.47-26.94-44-2.66-8.67-3.06-12.8-3.06-30,0-22.93,2.13-31.87,11.73-50.67,6.93-13.46,25.07-32.26,38.93-40.4,10.54-6.13,26.4-11.86,37.74-13.46a106.72,106.72,0,0,1,50.8,4.66c15.06,5.07,27.33,12.8,40.26,25.74s20.4,24.93,26.14,42.13c3.33,9.87,3.6,12.4,3.6,32s-.27,22.13-3.6,32C422.93,511.47,362.93,541.2,306.13,521.6ZM550,314c-2.67,2.8-4.53,3.33-11.33,3.33h-8v8.27c0,9.87-2.27,13.07-9.07,13.07-7.47,0-9.6-2.94-9.6-12.94v-8.4h-7.87c-10,0-14.8-3.33-14.8-10.13,0-7.33,3.74-9.87,14-9.87H512v-8.4c0-8.93.53-10.4,4.67-12.66,3.86-2.27,6.53-2,10.53,1.2,3.07,2.4,3.47,3.6,3.47,11.33v8.53h8.53c7.73,0,8.93.4,11.33,3.47C554.27,305.47,554,310,550,314Z" transform="translate(-17.33 -80.37)"/><path class="cls-1" d="M102,148V95l87.22-6L220,95v53Z" transform="translate(-17.33 -80.37)"/><polygon class="cls-1" points="444.67 67.63 449.67 14.63 552 8.63 564.67 28.63 564.67 72.63 444.67 67.63"/></svg>