<svg xmlns="http://www.w3.org/2000/svg" viewBox="0 0 200 200"><defs><style>.cls-1{fill:#20b678;}.cls-2,.cls-3{fill:none;}.cls-2{stroke:#20b678;stroke-miterlimit:10;}</style></defs><g id="Layer_3" data-name="Layer 3"><path class="cls-1" d="M170.5,92.87H28.06a3.49,3.49,0,0,0-3.49,3.49v16a3.49,3.49,0,0,0,3.49,3.49H170.5a3.49,3.49,0,0,0,3.49-3.49v-16A3.49,3.49,0,0,0,170.5,92.87Zm-1.41,18.55H29.47V97.32H169.09Z"/><path class="cls-1" d="M157.82,95.09H40.74a6.93,6.93,0,0,0-5.1,2.23H162.92A6.94,6.94,0,0,0,157.82,95.09Zm-124,16.33V193a7,7,0,0,0,7,7H157.82a7,7,0,0,0,7-7V111.42ZM160.19,195.1H38.37V115.72H160.19Z"/><path class="cls-1" d="M66.19,81.22H64.56V72.31A2.59,2.59,0,0,0,62,69.72H48.38a2.59,2.59,0,0,0-2.59,2.59v8.91H44.15A3.19,3.19,0,0,0,41,84.41v8.83a3.19,3.19,0,0,0,3.19,3.19h22a3.19,3.19,0,0,0,3.19-3.19V84.41A3.19,3.19,0,0,0,66.19,81.22Zm-15.8-7H60v7H50.39Zm14,19.14H45.94V86.12H64.41Z"/><path class="cls-1" d="M154.48,81.22h-1.64V72.31a2.59,2.59,0,0,0-2.59-2.59H136.67a2.59,2.59,0,0,0-2.6,2.59v8.91h-1.63a3.19,3.19,0,0,0-3.19,3.19v8.83a3.19,3.19,0,0,0,3.19,3.19h22a3.19,3.19,0,0,0,3.19-3.19V84.41A3.19,3.19,0,0,0,154.48,81.22Zm-15.81-7h9.57v7h-9.57Zm14,19.14H134.22V86.12h18.47Z"/><path class="cls-1" d="M123.07,95.09,122,92.87l-4.49-9H82l-5.06,9-1.25,2.22-1,1.83H124ZM85.54,88.34h28.21l2.73,4.53h-34Z"/><polygon class="cls-2" points="118.94 96.92 79.69 96.92 80.94 95.09 82.46 92.87 116.48 92.87 117.83 95.09 118.94 96.92"/><path class="cls-1" d="M85.07,160.15l17.73-31.87a.67.67,0,0,1,1.25.33V148.2a.67.67,0,0,0,.67.67H113a.67.67,0,0,1,.59,1L96,184.53a.67.67,0,0,1-1.27-.31V161.74a.67.67,0,0,0-.67-.67l-8.36.08A.67.67,0,0,1,85.07,160.15Z"/><path class="cls-1" d="M64.45,123.29a12.84,12.84,0,1,0,12.83,12.83A12.83,12.83,0,0,0,64.45,123.29ZM54.7,138.36V134.5H74.5v3.86Z"/><path class="cls-1" d="M145.57,131.55c-.08-.21-.16-.41-.25-.6s-.21-.45-.32-.67h0a5.86,5.86,0,0,0-.3-.55c-.1-.18-.2-.35-.32-.53l-.34-.51c-.12-.17-.25-.33-.37-.49l-.4-.48c-.2-.23-.41-.46-.63-.68a12.84,12.84,0,1,0,0,18.16c.22-.22.43-.45.63-.68s.27-.31.4-.47l.37-.5.34-.51a5.74,5.74,0,0,0,.32-.53,5.86,5.86,0,0,0,.3-.55,12.72,12.72,0,0,0,1-2.78c.06-.25.11-.5.16-.75,0-.09,0-.18.05-.28a13.57,13.57,0,0,0,.15-2A12.83,12.83,0,0,0,145.57,131.55Zm-1.95,6.81h-7.81v7.5H132v-7.5h-8.12V134.5H132v-8.43h3.86v8.43h7.81Z"/><path class="cls-1" d="M145.57,131.55c-.08-.21-.16-.41-.25-.6s-.21-.45-.32-.67h0a5.86,5.86,0,0,0-.3-.55c-.1-.18-.2-.35-.32-.53l-.34-.51c-.12-.17-.25-.33-.37-.49l-.4-.48c-.2-.23-.41-.46-.63-.68a12.84,12.84,0,1,0,0,18.16c.22-.22.43-.45.63-.68s.27-.31.4-.47l.37-.5.34-.51a5.74,5.74,0,0,0,.32-.53,5.86,5.86,0,0,0,.3-.55,12.72,12.72,0,0,0,1-2.78c.06-.25.11-.5.16-.75,0-.09,0-.18.05-.28a13.56,13.56,0,0,0,.16-2A12.83,12.83,0,0,0,145.57,131.55Zm-1.95,6.81h-7.81v7.5H132v-7.5h-8.12V134.5H132v-8.43h3.86v8.43h7.81Z"/><path class="cls-1" d="M53,39.21l-.62-.29C66.56,14.39,62.46,3.52,62.46,3.52L57.28,7.85c.46,5.18-3.64,14.54-3.64,14.54H47.53L44.82,18c-.62-3.09,10-10.83,10-10.83S55,7,56.58.57c-8.92,1.68-22.77,21-26.31,26.15a3.51,3.51,0,0,0-4.83.78L10.35,47.78a3.51,3.51,0,0,0,.73,4.91L15.56,56a3.51,3.51,0,0,0,4.91-.73L35.55,35a3.5,3.5,0,0,0-.72-4.91l-.49-.37,3.83-5,5.49,5.11,6.11,1.7-2.09,4.65s0,.2-.13.55a3.49,3.49,0,0,0-4.28,1.86L32.66,61.52a3.52,3.52,0,0,0,1.72,4.66l5.07,2.35a3.52,3.52,0,0,0,4.66-1.72l10.6-22.94A3.5,3.5,0,0,0,53,39.21ZM29.42,28v-.31l.1.17Z"/><path class="cls-1" d="M28.11,99.84V94.58s-23.37-6.11-12.85-39l-3.32-2.87S-1.76,93.19,28.11,99.84Z"/><path class="cls-1" d="M145.29,43.87l10.6,22.94a3.52,3.52,0,0,0,4.66,1.72l5.07-2.35a3.52,3.52,0,0,0,1.72-4.66L156.73,38.58a3.49,3.49,0,0,0-4.28-1.86c-.08-.35-.13-.55-.13-.55l-2.09-4.65,6.11-1.7,5.49-5.11,3.83,5-.49.37a3.5,3.5,0,0,0-.72,4.91L179.53,55.3a3.51,3.51,0,0,0,4.91.73l4.48-3.34a3.51,3.51,0,0,0,.73-4.91L174.56,27.5a3.51,3.51,0,0,0-4.83-.78C166.19,21.59,152.34,2.25,143.42.57,145,7,145.2,7.15,145.2,7.15s10.6,7.74,10,10.83l-2.71,4.41h-6.11s-4.1-9.36-3.64-14.54l-5.18-4.33s-4.1,10.87,10.08,35.4l-.62.29A3.5,3.5,0,0,0,145.29,43.87Zm25.19-16,.1-.17V28Z"/><path class="cls-1" d="M171.89,99.84V94.58s23.37-6.11,12.85-39l3.32-2.87S201.76,93.19,171.89,99.84Z"/><rect class="cls-1" x="34.25" y="101.03" width="130.58" height="6.08"/></g><g id="Layer_5" data-name="Layer 5"><rect class="cls-3" width="200" height="200"/></g></svg>