<?xml version="1.0" encoding="utf-8"?>
<!-- Generator: Adobe Illustrator 23.0.2, SVG Export Plug-In . SVG Version: 6.00 Build 0)  -->
<svg version="1.1" id="Layer_1" xmlns="http://www.w3.org/2000/svg" xmlns:xlink="http://www.w3.org/1999/xlink" x="0px" y="0px"
	 viewBox="0 0 579 555" style="enable-background:new 0 0 579 555;" xml:space="preserve">
<style type="text/css">
	.st0{fill:#20B678;}
</style>
<path class="st0" d="M574.4,219.1c-4.1-3.7-270-212-277.1-216.8c-4.1-2.9-11.9-2.9-16,0C275.9,6,14.7,210.5,7.1,216.9
	c-6.5,5.6-7.1,6.4-7.1,11.9c0,7.9,4.3,12.5,11.6,12.5c5.5,0,7.9-1.3,18.1-9.7l6.3-5.2v321.7l3.3,3.2l3.2,3.3h493.6l3.2-3.3l3.3-3.2
	V226.4l6.4,5.2c10.1,8.4,12.5,9.7,18,9.7c7.2,0,11.6-4.7,11.6-12.4C578.7,224.1,578,222.5,574.4,219.1z M168,481.3v48h-34.7v-73.7
	c0-69.6,0.1-74.1,2.7-83.3c1.5-5.2,2.7-9.9,2.7-10.3s-6.5-0.7-14.7-0.7h-14.7v-22.7h32.8l23.7-47.9c24.9-50.3,27.2-53.7,38.1-58.7
	c5.9-2.7,8.4-2.8,85.3-2.8c76.9,0,79.5,0.1,85.3,2.8c10.9,4.9,13.2,8.4,38.1,58.7l23.7,47.9h32.8v22.7h-14.7c-8,0-14.7,0.3-14.7,0.7
	s1.2,5.1,2.7,10.3c2.5,9.2,2.7,13.7,2.7,83.3v73.7h-34.7v-48H168z M385.3,529.3h-192v-22.7h192V529.3z M517.3,529.3h-46.7V386.9
	l4.4-0.9c6.9-1.5,13.7-6.7,16.8-12.9c2.4-5.1,2.8-8.3,2.8-23.5c0-18.8-0.9-22.9-6.4-28.7c-6-6.4-9.7-7.6-23.3-7.6h-12.4l-20.7-42.4
	c-19.5-40.3-20.9-42.7-29.2-51.1c-6.4-6.4-10.8-9.6-16.7-12l-8-3.2l-84-0.4c-90-0.4-94.8-0.1-106.4,6.1
	c-13.5,7.2-18.4,14.7-40.8,60.7l-20.5,42.3h-12.5c-13.6,0-17.3,1.2-23.3,7.6c-5.5,5.7-6.4,9.9-6.4,28.7c0,15.2,0.4,18.4,2.8,23.5
	c3.1,6.3,9.9,11.5,16.8,12.9l4.4,0.9v142.4H61.3V206.9l113.6-88.8c62.9-49.3,114.3-88.7,115.3-88.3c0.9,0.4,52.4,40.4,114.4,88.9
	l112.7,88.1V529.3z"/>
<path class="st0" d="M200.3,337.3l11.2-25.5c6.1-14,12.1-27.5,13.2-30l1.9-4.5l62.9,0.3l62.9,0.4l12.9,29.6l13.1,29.7H200.3z"/>
<path class="st0" d="M200.5,414.1c-4.8-4.7-10.3-4.5-15.3,0.4c-2.3,2.4-3.9,5.3-3.9,7.5c0,4.3,6.7,11.3,10.7,11.3
	C202.5,433.3,207.9,421.5,200.5,414.1z M200.5,414.1c-4.8-4.7-10.3-4.5-15.3,0.4c-2.3,2.4-3.9,5.3-3.9,7.5c0,4.3,6.7,11.3,10.7,11.3
	C202.5,433.3,207.9,421.5,200.5,414.1z M479,358l-9.7-30l-30.3-8l-28.5-68L369,221l-79.7-8l-89.1,5L130,323l-32,9v30.8l26,7.2v170
	l44.1,5l13.2-23l4.7-22l24-8h46l141-3l13.5,60l46.5-4v-44l-5-110l27-20V358z M165.7,446.3c-16.8-18.3-10.7-47.1,12.3-57.7
	c22.8-10.7,49.2,4.9,51.1,30.1c1.1,15.9-5.2,28-18.7,35.5c-6.1,3.3-8.4,3.9-17.7,3.9C180,458,174.1,455.5,165.7,446.3z M212.1,254.4
	c4.1-2.1,10.7-2.4,77.2-2.4c66.5,0,73.1,0.3,77.2,2.4c4.3,2.1,5.9,5.3,24.3,46.9c10.8,24.5,19.7,46,19.7,47.7
	c0.1,5.1-3.5,10.5-8,12.1c-6,2.1-220.4,2.1-226.4,0c-4.5-1.6-8.1-7.1-8-12.1c0-1.7,8.9-23.2,19.7-47.7
	C206.3,259.7,207.9,256.5,212.1,254.4z M412.9,446.3c-8.4,9.2-14.3,11.7-26.9,11.7c-9.3,0-11.6-0.5-17.9-4
	c-13.6-7.5-19.6-19.2-18.5-35.5c1.1-14.4,9.9-26.4,23.1-31.1c17.6-6.3,37.7,1.6,46.1,18.1C425.3,418.4,422.8,435.6,412.9,446.3z
	 M378.1,414.1c-7.2,7.3-2,19.2,8.4,19.2c4,0,9.3-5.3,10.3-10.3c0.7-3.6,0.1-4.9-3.2-8.4C388.4,409.6,383.1,409.3,378.1,414.1z
	 M200.5,414.1c-4.8-4.7-10.3-4.5-15.3,0.4c-2.3,2.4-3.9,5.3-3.9,7.5c0,4.3,6.7,11.3,10.7,11.3C202.5,433.3,207.9,421.5,200.5,414.1z
	"/>
</svg>
