<svg id="Layer_1" data-name="Layer 1" xmlns="http://www.w3.org/2000/svg" viewBox="0 0 199.64 199.85"><defs><style>.cls-1{fill:#20b678;}</style></defs><path class="cls-1" d="M166.61,147.59a4.25,4.25,0,0,0-2.71-4.28c-3.4-1.6-6.72-3.36-10.1-5a4.31,4.31,0,0,1-2.1-2.13c-3.24-6.57-6.59-13.08-9.8-19.66a10.48,10.48,0,0,0-10.21-6.4q-31.68,0-63.36,0a10.38,10.38,0,0,0-10.1,6.25C55,123,51.61,129.57,48.35,136.2a4.33,4.33,0,0,1-2.11,2.13c-3.27,1.56-6.46,3.3-9.76,4.8-2.28,1-3.08,2.61-3.07,5.06.06,14.3.11,28.6,0,42.9,0,4.1,1.09,7.22,5,8.91H54.79c4-1.38,5.55-4.25,5.35-8.35-.12-2.21.06-4.43-.06-6.63-.06-1.39.41-1.73,1.75-1.72,8.12.06,16.24,0,24.36,0,17.21,0,34.43,0,51.64,0,1.73,0,2.28.41,2.13,2.13-.17,1.88.08,3.78-.06,5.66-.32,4.11,1.06,7.19,5,8.92h16.38c3.47-1.22,5.36-3.57,5.36-7.36Q166.59,170.11,166.61,147.59ZM53.47,192.18c0,.95-.32,1.21-1.23,1.19-3.63,0-7.26-.05-10.88,0-1.08,0-1.3-.39-1.27-1.36q.07-3.69,0-7.38c0-1,.3-1.37,1.33-1.33,1.81.06,3.62,0,5.44,0s3.5,0,5.24,0c1,0,1.4.24,1.37,1.29Q53.38,188.4,53.47,192.18ZM70,163.6A6.44,6.44,0,0,1,63.69,170c-1.75.07-3.51,0-5.26,0s-3.51,0-5.26,0a6.37,6.37,0,0,1-6.26-5.79,39.84,39.84,0,0,1,0-8.17,6.34,6.34,0,0,1,6.17-5.9c3.57-.12,7.15-.12,10.72,0A6.43,6.43,0,0,1,70,156.39C70.09,158.79,70.08,161.21,70,163.6ZM55.82,136.72c-.3-.48.12-.84.3-1.21,2.67-5.39,5.4-10.76,8.05-16.17a4.13,4.13,0,0,1,4.14-2.56q31.66,0,63.32,0a4.23,4.23,0,0,1,4.28,2.65c2.78,5.7,5.65,11.36,8.61,17.29Zm67.49,26.59c-.2,4.13-2.88,6.66-7.06,6.69-5.39,0-10.78,0-16.18,0s-10.65,0-16,0c-4.7,0-7.32-2.64-7.39-7.36,0-1.89-.06-3.77,0-5.66.15-4.24,2.85-6.89,7.07-6.91q16.27,0,32.55,0a6.61,6.61,0,0,1,7,6.61C123.42,158.88,123.42,161.11,123.31,163.31ZM141.47,170c-1.68,0-3.38,0-5.06,0a6.43,6.43,0,0,1-6.37-6.31c-.09-2.4-.09-4.81,0-7.21a6.44,6.44,0,0,1,6.35-6.35c3.5-.1,7-.11,10.52,0a6.37,6.37,0,0,1,6.22,5.85,38.4,38.4,0,0,1,0,8.37,6.36,6.36,0,0,1-6.18,5.65C145.11,170,143.29,170,141.47,170ZM160,192.21c0,.79-.17,1.18-1.07,1.16q-5.62-.06-11.27,0c-.93,0-1-.43-1-1.18,0-2.53,0-5.06,0-7.58,0-1.05.38-1.34,1.36-1.3,1.81.06,3.63,0,5.44,0s3.63,0,5.44,0c.83,0,1.15.28,1.14,1.13Q159.89,188.33,160,192.21Z" transform="translate(-0.18 -0.15)"/><path class="cls-1" d="M116.73,158.52c-.1,4.83,0,4.83-4.83,4.83H99.82c-4.94,0-9.87,0-14.81,0-1.16,0-1.85-.13-1.68-1.55.21-1.65-.71-3.87.39-4.84.93-.81,3.09-.28,4.7-.28,8.77,0,17.55,0,26.32,0C116.14,156.67,116.77,156.86,116.73,158.52Z" transform="translate(-0.18 -0.15)"/><path class="cls-1" d="M63.41,161.61c.21,1.5-.37,1.86-1.79,1.78-2.27-.13-4.54-.1-6.81,0-1.13,0-1.46-.33-1.38-1.42.11-1.68-.55-3.87.28-4.91s3.17-.17,4.84-.22,3.61-.61,4.5.15C64.1,157.89,63.19,160,63.41,161.61Z" transform="translate(-0.18 -0.15)"/><path class="cls-1" d="M146.22,163.07c-.84.8-3.07.16-4.68.16s-3.71.84-4.63-.22c-.78-.9-.15-3-.29-4.5s.22-1.94,1.75-1.84c2.33.15,4.67.08,7,0,.91,0,1.36.21,1.21,1.18a1.33,1.33,0,0,0,0,.2C146.46,159.78,147.31,162,146.22,163.07Z" transform="translate(-0.18 -0.15)"/><path class="cls-1" d="M.18,189v1a2,2,0,0,1,.43-1Zm199.62,8.22v.83l0,0v-.85ZM195.23,200a2,2,0,0,1-.65-.11H181.74a2.06,2.06,0,0,1-.65.11h14.14Z" transform="translate(-0.18 -0.15)"/><path class="cls-1" d="M195.76,33.07Q149.21,17,102.68,1a9.27,9.27,0,0,1-1-.29A4.06,4.06,0,0,0,100,.24h-.47a3.22,3.22,0,0,0-1.33.29c-4.34,1.9-8.89,3.19-13.35,4.74q-40.56,14.07-81.15,28A6.58,6.58,0,0,0,.18,35.75V189H.61a2,2,0,0,0-.43,1v8.06L2.12,200H20.84c2.26-.9,2.68-2.73,2.68-4.94q0-49.74-.07-99.46c0-1.86.55-2.16,2.24-2.15q74.36.06,148.72,0c1.63,0,2.14.28,2.13,2.06q-.09,49.35-.07,98.69c0,.52,0,1,0,1.5V198a2,2,0,0,0,1.85,2h2.73a2.06,2.06,0,0,0,.65-.11h12.84a2,2,0,0,0,.65.11h2.55a2,2,0,0,0,2-1.93v-.83l0,0V35.75C198.9,34.2,197.36,33.62,195.76,33.07ZM16.84,130.26q0,20.18,0,40.35,0,10.35.05,20.7c0,1.77-.48,2.19-2.15,2.09-2.26-.16-4.55-.07-6.82,0-.66,0-1-.13-1.11-.62a1.61,1.61,0,0,1,0-.44v0a9.14,9.14,0,0,0,0-1.17V170.61q0-50.79-.05-101.59c0-1.77.43-2.36,2.21-2.2a33.19,33.19,0,0,0,5.64,0c1.74-.13,2.28.34,2.27,2.19C16.82,89.43,16.84,109.84,16.84,130.26ZM176.55,82.4c-.17,4.42-.05,4.43-4.44,4.43H100q-37.22,0-74.43,0c-1.65,0-2.2-.3-2.14-2.08.14-4.6,0-4.61,4.62-4.61q73.08,0,146.14,0C176,80.14,176.63,80.45,176.55,82.4ZM23.44,71.19c.19-4.33.06-4.33,4.33-4.33H100.1q37.13,0,74.27,0c1.84,0,2.21.53,2.17,2.24-.12,4.46,0,4.47-4.41,4.47q-73.11,0-146.21,0C24.06,73.56,23.34,73.28,23.44,71.19ZM193.21,191.82c-.07,1.3-.54,1.68-2,1.58a44.66,44.66,0,0,0-6.23,0c-1.36.08-1.86-.23-1.86-1.6v-.19c.12-3.77,0-7.54,0-11.31v-9.76q0-50.7-.05-101.41c0-1.93.51-2.45,2.36-2.31a63.56,63.56,0,0,0,6.62,0c.84,0,1.18.24,1.11,1.1s0,1.69,0,2.53V130q0,20.29,0,40.57,0,9.79,0,19.59h0c0,.43,0,.85,0,1.27C193.22,191.55,193.21,191.69,193.21,191.82ZM191.16,60.23q-45.6-.07-91.2,0H9.34c-2.52,0-2.52,0-2.52-2.61,0-5.59,0-11.18,0-16.77a1.78,1.78,0,0,1,1.41-2.07Q53.5,23.19,98.72,7.53a3.75,3.75,0,0,1,2.62,0q45.15,15.62,90.34,31.14a1.88,1.88,0,0,1,1.52,2.19c-.06,5.78-.1,11.57,0,17.36C193.26,59.93,192.73,60.23,191.16,60.23Z" transform="translate(-0.18 -0.15)"/><path class="cls-1" d="M91.05,3.22,98.59.37A3.22,3.22,0,0,1,99.78.15h.68a3.41,3.41,0,0,1,1.18.21l8,3Z" transform="translate(-0.18 -0.15)"/></svg>